<svg width="24" height="24" viewBox="0 0 24 24" fill="none" xmlns="http://www.w3.org/2000/svg">
<path d="M12 2C17.5228 2 22 6.47715 22 12C22 17.5228 17.5228 22 12 22C6.47715 22 2 17.5228 2 12C2 6.47715 6.47715 2 12 2ZM17.207 8.29297C16.8165 7.90244 16.1835 7.90244 15.793 8.29297L15.752 8.33398C15.7473 8.33859 15.7419 8.34304 15.7373 8.34766C15.7327 8.35227 15.7283 8.35769 15.7236 8.3623L15.6963 8.38965C15.6916 8.39429 15.6863 8.39867 15.6816 8.40332C15.677 8.40795 15.6726 8.41333 15.668 8.41797L15.6543 8.43164C15.6496 8.43631 15.6443 8.44063 15.6396 8.44531C15.635 8.44998 15.6307 8.45528 15.626 8.45996L15.4551 8.63086C15.4504 8.63558 15.4452 8.63981 15.4404 8.64453C15.4357 8.64925 15.4315 8.65446 15.4268 8.65918L15.3682 8.71777C15.3635 8.72249 15.3582 8.72672 15.3535 8.73145C15.3488 8.73616 15.3446 8.74137 15.3398 8.74609L15.252 8.83398C15.247 8.83889 15.2412 8.84372 15.2363 8.84863L15.2217 8.86328C15.2168 8.8682 15.212 8.87398 15.207 8.87891L15.0137 9.07227C15.0087 9.07728 15.0031 9.0819 14.998 9.08691C14.993 9.09193 14.9884 9.09752 14.9834 9.10254L14.8623 9.22363C14.8573 9.22866 14.8517 9.23325 14.8467 9.23828C14.8416 9.24332 14.8371 9.24886 14.832 9.25391L14.7861 9.2998C14.7811 9.30485 14.7756 9.30941 14.7705 9.31445C14.7655 9.31948 14.7609 9.32505 14.7559 9.33008L14.6787 9.40723C14.6737 9.41227 14.6681 9.41683 14.6631 9.42188C14.658 9.42692 14.6535 9.43245 14.6484 9.4375L14.6016 9.48438C14.5965 9.4894 14.591 9.494 14.5859 9.49902C14.5809 9.50407 14.5763 9.5096 14.5713 9.51465L14.5088 9.57715C14.5037 9.58219 14.4982 9.58675 14.4932 9.5918L14.4775 9.60742C14.4725 9.61247 14.4679 9.618 14.4629 9.62305L14.1348 9.95117C14.1295 9.9564 14.1234 9.96156 14.1182 9.9668L14.1025 9.98242C14.0973 9.98766 14.0922 9.99379 14.0869 9.99902L13.9775 10.1084C13.9723 10.1136 13.9662 10.1188 13.9609 10.124C13.9557 10.1293 13.9505 10.1354 13.9453 10.1406L13.8516 10.2344C13.8463 10.2396 13.8402 10.2448 13.835 10.25C13.8297 10.2553 13.8246 10.2613 13.8193 10.2666L13.7412 10.3447C13.736 10.35 13.7299 10.3551 13.7246 10.3604C13.7194 10.3656 13.7142 10.3717 13.709 10.377L13.6309 10.4551C13.6256 10.4603 13.6195 10.4655 13.6143 10.4707C13.609 10.4759 13.6039 10.4821 13.5986 10.4873L13.5049 10.5811C13.4996 10.5863 13.4935 10.5914 13.4883 10.5967L13.4727 10.6123C13.4674 10.6175 13.4623 10.6237 13.457 10.6289L13.3164 10.7695C13.3112 10.7748 13.305 10.7799 13.2998 10.7852L13.2529 10.832C13.2477 10.8372 13.2425 10.8434 13.2373 10.8486L13.1592 10.9268C13.1541 10.9318 13.1486 10.9364 13.1436 10.9414L13.0967 10.9883C13.0916 10.9933 13.0871 10.9989 13.082 11.0039L12.9727 11.1133C12.9676 11.1183 12.9621 11.1229 12.957 11.1279C12.952 11.133 12.9474 11.1385 12.9424 11.1436L12.7725 11.3135C12.7674 11.3185 12.7619 11.3231 12.7568 11.3281C12.7518 11.3332 12.7472 11.3387 12.7422 11.3438L12.7266 11.3594C12.7215 11.3644 12.716 11.369 12.7109 11.374C12.7059 11.3791 12.7013 11.3846 12.6963 11.3896L12.6504 11.4355C12.6453 11.4406 12.6398 11.4452 12.6348 11.4502C12.6297 11.4552 12.6252 11.4608 12.6201 11.4658C12.6151 11.4709 12.6095 11.4754 12.6045 11.4805C12.5995 11.4855 12.5949 11.4911 12.5898 11.4961L12.5596 11.5264C12.5545 11.5314 12.549 11.536 12.5439 11.541C12.5389 11.546 12.5343 11.5516 12.5293 11.5566L12.3945 11.6914C12.3896 11.6964 12.3839 11.7011 12.3789 11.7061C12.374 11.711 12.3692 11.7167 12.3643 11.7217L12.3057 11.7803C12.3007 11.7852 12.2949 11.79 12.29 11.7949C12.2851 11.7998 12.2803 11.8056 12.2754 11.8105L12.1436 11.9424C12.1388 11.9471 12.1336 11.9513 12.1289 11.9561C12.1242 11.9608 12.1199 11.966 12.1152 11.9707L11.8721 12.2139C11.8674 12.2186 11.8621 12.2229 11.8574 12.2275C11.8527 12.2322 11.8484 12.2375 11.8438 12.2422L11.8301 12.2559C11.8254 12.2605 11.8201 12.2649 11.8154 12.2695C11.8108 12.2742 11.8064 12.2795 11.8018 12.2842L11.7607 12.3252C11.7561 12.3298 11.7507 12.3343 11.7461 12.3389C11.7415 12.3435 11.737 12.3489 11.7324 12.3535L11.6367 12.4492C11.6323 12.4536 11.6274 12.4575 11.623 12.4619C11.6187 12.4663 11.6147 12.4712 11.6104 12.4756L11.5693 12.5166C11.565 12.521 11.56 12.5249 11.5557 12.5293C11.5513 12.5337 11.5474 12.5386 11.543 12.543L11.5029 12.583C11.4985 12.5874 11.4936 12.5913 11.4893 12.5957C11.4849 12.6001 11.4809 12.605 11.4766 12.6094C11.4722 12.6138 11.4673 12.6177 11.4629 12.6221C11.4585 12.6264 11.4546 12.6314 11.4502 12.6357L11.3984 12.6875C11.3941 12.6918 11.3891 12.6959 11.3848 12.7002C11.3805 12.7045 11.3764 12.7096 11.3721 12.7139L11.2324 12.8535C11.2283 12.8576 11.2238 12.8612 11.2197 12.8652C11.2157 12.8693 11.2121 12.8739 11.208 12.8779L11.0264 13.0596C11.0224 13.0635 11.0176 13.0674 11.0137 13.0713L10.9902 13.0947C10.9865 13.0985 10.9832 13.1027 10.9795 13.1064L10.8428 13.2432C10.8391 13.2469 10.8347 13.2502 10.8311 13.2539C10.8274 13.2576 10.824 13.262 10.8203 13.2656L10.7988 13.2871C10.7952 13.2908 10.7907 13.2942 10.7871 13.2979C10.7835 13.3015 10.78 13.306 10.7764 13.3096L10.7441 13.3418C10.7407 13.3452 10.7368 13.3482 10.7334 13.3516L10.7227 13.3623C10.7192 13.3657 10.7163 13.3696 10.7129 13.373L10.6914 13.3945C10.688 13.3979 10.6841 13.4009 10.6807 13.4043C10.6772 13.4077 10.6743 13.4116 10.6709 13.415L10.6299 13.4561C10.6265 13.4594 10.6225 13.4625 10.6191 13.4658C10.6158 13.4692 10.6127 13.4732 10.6094 13.4766L10.5898 13.4961C10.5865 13.4994 10.5824 13.5026 10.5791 13.5059L10.5693 13.5156C10.5661 13.5189 10.5628 13.5231 10.5596 13.5264L10.5498 13.5361C10.5467 13.5392 10.5431 13.5418 10.54 13.5449L10.5303 13.5547C10.5272 13.5578 10.5246 13.5614 10.5215 13.5645L10.502 13.584L10.499 13.585L8.20703 11.293L8.13086 11.2246C7.73809 10.9043 7.15908 10.9269 6.79297 11.293C6.40244 11.6835 6.40244 12.3165 6.79297 12.707L9.79297 15.707C10.1835 16.0976 10.8165 16.0976 11.207 15.707L11.208 15.7061H11.209L11.21 15.7041H11.2109V15.7031L11.2148 15.6992L11.2168 15.6982L11.2178 15.6963L11.2236 15.6904L11.2256 15.6895L11.2266 15.6875L11.2344 15.6797C11.2351 15.679 11.2366 15.6785 11.2373 15.6777C11.238 15.677 11.2385 15.6756 11.2393 15.6748L11.2412 15.6729C11.242 15.6721 11.2434 15.6717 11.2441 15.6709C11.2449 15.6701 11.2453 15.6688 11.2461 15.668L11.2715 15.6426C11.2725 15.6415 11.2743 15.6407 11.2754 15.6396C11.2764 15.6386 11.2772 15.6368 11.2783 15.6357L11.2959 15.6182C11.297 15.617 11.2987 15.6164 11.2998 15.6152L11.3037 15.6113C11.3048 15.6102 11.3055 15.6086 11.3066 15.6074C11.3079 15.6061 11.3102 15.6048 11.3115 15.6035L11.3154 15.5996C11.3168 15.5983 11.318 15.5961 11.3193 15.5947L11.3887 15.5254C11.3904 15.5237 11.3928 15.5222 11.3945 15.5205C11.3963 15.5188 11.3976 15.5164 11.3994 15.5146C11.4012 15.5129 11.4035 15.5116 11.4053 15.5098C11.4071 15.508 11.4084 15.5057 11.4102 15.5039L11.4678 15.4463C11.4698 15.4443 11.4726 15.4425 11.4746 15.4404C11.4767 15.4384 11.4784 15.4357 11.4805 15.4336L11.5127 15.4014C11.5148 15.3993 11.5174 15.3976 11.5195 15.3955C11.5216 15.3934 11.5233 15.3908 11.5254 15.3887L11.6182 15.2959C11.6206 15.2935 11.6235 15.2915 11.626 15.2891C11.6284 15.2867 11.6304 15.2837 11.6328 15.2812L11.6797 15.2344C11.6823 15.2317 11.6858 15.2292 11.6885 15.2266C11.6912 15.2239 11.6936 15.2205 11.6963 15.2178L11.7041 15.21C11.7068 15.2072 11.7102 15.2049 11.7129 15.2021C11.7156 15.1994 11.718 15.1961 11.7207 15.1934L11.7373 15.1768C11.7401 15.174 11.7433 15.1717 11.7461 15.1689C11.7488 15.1662 11.7512 15.1629 11.7539 15.1602L11.7803 15.1338C11.783 15.131 11.7863 15.1288 11.7891 15.126L11.8066 15.1084C11.8096 15.1055 11.8125 15.1016 11.8154 15.0986L11.8418 15.0723C11.8448 15.0692 11.8485 15.0665 11.8516 15.0635C11.8546 15.0605 11.8573 15.0568 11.8604 15.0537L11.8975 15.0166C11.9005 15.0135 11.9041 15.0109 11.9072 15.0078C11.9103 15.0047 11.9129 15.0011 11.916 14.998L11.9355 14.9785C11.9386 14.9754 11.9422 14.9728 11.9453 14.9697L11.9551 14.96C11.9582 14.9569 11.9608 14.9533 11.9639 14.9502L11.9736 14.9404C11.9769 14.9372 11.9811 14.9339 11.9844 14.9307L11.9941 14.9209C11.9974 14.9176 12.0006 14.9135 12.0039 14.9102L12.0234 14.8906C12.0268 14.8873 12.0308 14.8842 12.0342 14.8809C12.0375 14.8775 12.0406 14.8735 12.0439 14.8701L12.085 14.8291C12.0884 14.8257 12.0923 14.8228 12.0957 14.8193C12.0991 14.8159 12.1021 14.812 12.1055 14.8086L12.127 14.7871C12.1304 14.7837 12.1343 14.7808 12.1377 14.7773L12.1484 14.7666C12.1518 14.7632 12.1548 14.7593 12.1582 14.7559L12.1904 14.7236C12.194 14.72 12.1985 14.7165 12.2021 14.7129C12.2058 14.7093 12.2092 14.7048 12.2129 14.7012L12.2344 14.6797C12.238 14.676 12.2424 14.6726 12.2461 14.6689C12.2498 14.6653 12.2531 14.6609 12.2568 14.6572L12.3936 14.5205C12.3973 14.5168 12.4015 14.5135 12.4053 14.5098L12.4287 14.4863C12.4326 14.4824 12.4365 14.4776 12.4404 14.4736L12.6221 14.292C12.6261 14.2879 12.6307 14.2843 12.6348 14.2803C12.6388 14.2762 12.6424 14.2717 12.6465 14.2676L12.7861 14.1279C12.7904 14.1236 12.7955 14.1195 12.7998 14.1152C12.8041 14.1109 12.8082 14.1059 12.8125 14.1016L12.8643 14.0498C12.8686 14.0454 12.8736 14.0415 12.8779 14.0371C12.8823 14.0327 12.8862 14.0278 12.8906 14.0234C12.895 14.0191 12.8999 14.0151 12.9043 14.0107C12.9087 14.0064 12.9126 14.0015 12.917 13.9971L12.957 13.957C12.9614 13.9526 12.9663 13.9487 12.9707 13.9443C12.9751 13.94 12.979 13.935 12.9834 13.9307L13.0244 13.8896C13.0288 13.8853 13.0337 13.8813 13.0381 13.877C13.0425 13.8726 13.0464 13.8677 13.0508 13.8633L13.1465 13.7676C13.1511 13.763 13.1565 13.7585 13.1611 13.7539C13.1657 13.7493 13.1702 13.7439 13.1748 13.7393L13.2158 13.6982C13.2205 13.6936 13.2258 13.6892 13.2305 13.6846C13.2351 13.6799 13.2395 13.6746 13.2441 13.6699L13.2578 13.6562C13.2625 13.6516 13.2678 13.6473 13.2725 13.6426C13.2771 13.6379 13.2814 13.6326 13.2861 13.6279L13.5293 13.3848C13.534 13.3801 13.5392 13.3758 13.5439 13.3711C13.5487 13.3664 13.5529 13.3612 13.5576 13.3564L13.6895 13.2246C13.6944 13.2197 13.7002 13.2149 13.7051 13.21C13.71 13.2051 13.7148 13.1993 13.7197 13.1943L13.7783 13.1357C13.7833 13.1308 13.789 13.126 13.7939 13.1211C13.7989 13.1161 13.8036 13.1104 13.8086 13.1055L13.9434 12.9707C13.9484 12.9657 13.954 12.9611 13.959 12.9561C13.964 12.951 13.9686 12.9455 13.9736 12.9404L14.0039 12.9102C14.0089 12.9051 14.0145 12.9005 14.0195 12.8955C14.0246 12.8905 14.0291 12.8849 14.0342 12.8799C14.0392 12.8748 14.0448 12.8703 14.0498 12.8652C14.0548 12.8602 14.0594 12.8547 14.0645 12.8496L14.1104 12.8037C14.1154 12.7987 14.1209 12.7941 14.126 12.7891C14.131 12.784 14.1356 12.7785 14.1406 12.7734L14.1562 12.7578C14.1613 12.7528 14.1668 12.7482 14.1719 12.7432C14.1769 12.7381 14.1815 12.7326 14.1865 12.7275L14.3564 12.5576C14.3615 12.5526 14.367 12.548 14.3721 12.543C14.3771 12.5379 14.3817 12.5324 14.3867 12.5273L14.4961 12.418C14.5011 12.4129 14.5067 12.4084 14.5117 12.4033L14.5586 12.3564C14.5636 12.3514 14.5682 12.3459 14.5732 12.3408L14.6514 12.2627C14.6566 12.2575 14.6628 12.2523 14.668 12.2471L14.7148 12.2002C14.7201 12.195 14.7252 12.1888 14.7305 12.1836L14.8711 12.043C14.8763 12.0377 14.8825 12.0326 14.8877 12.0273L14.9033 12.0117C14.9086 12.0065 14.9137 12.0004 14.9189 11.9951L15.0127 11.9014C15.0179 11.8961 15.0241 11.891 15.0293 11.8857C15.0345 11.8805 15.0397 11.8744 15.0449 11.8691L15.123 11.791C15.1283 11.7858 15.1344 11.7806 15.1396 11.7754C15.1449 11.7701 15.15 11.764 15.1553 11.7588L15.2334 11.6807C15.2387 11.6754 15.2447 11.6703 15.25 11.665C15.2552 11.6598 15.2604 11.6537 15.2656 11.6484L15.3594 11.5547C15.3646 11.5495 15.3707 11.5443 15.376 11.5391C15.3812 11.5338 15.3864 11.5277 15.3916 11.5225L15.501 11.4131C15.5062 11.4078 15.5123 11.4027 15.5176 11.3975L15.5332 11.3818C15.5384 11.3766 15.5436 11.3705 15.5488 11.3652L15.877 11.0371C15.882 11.0321 15.8875 11.0275 15.8926 11.0225L15.9082 11.0068C15.9133 11.0018 15.9178 10.9963 15.9229 10.9912L15.9854 10.9287C15.9904 10.9237 15.9959 10.9191 16.001 10.9141C16.006 10.909 16.0106 10.9035 16.0156 10.8984L16.0625 10.8516C16.0675 10.8465 16.0731 10.842 16.0781 10.8369C16.0832 10.8319 16.0877 10.8263 16.0928 10.8213L16.1699 10.7441C16.175 10.7391 16.1805 10.7345 16.1855 10.7295C16.1906 10.7244 16.1952 10.7189 16.2002 10.7139L16.2461 10.668C16.2511 10.6629 16.2567 10.6584 16.2617 10.6533C16.2668 10.6483 16.2713 10.6427 16.2764 10.6377L16.3975 10.5166C16.4025 10.5116 16.4081 10.507 16.4131 10.502C16.4181 10.4969 16.4227 10.4913 16.4277 10.4863L16.6211 10.293C16.626 10.288 16.6318 10.2832 16.6367 10.2783L16.6514 10.2637C16.6563 10.2588 16.6611 10.253 16.666 10.248L16.7539 10.1602C16.7586 10.1554 16.7638 10.1512 16.7686 10.1465C16.7733 10.1418 16.7775 10.1365 16.7822 10.1318L16.8408 10.0732C16.8455 10.0685 16.8508 10.0643 16.8555 10.0596C16.8602 10.0548 16.8644 10.0496 16.8691 10.0449L17.04 9.87402C17.0447 9.86935 17.05 9.86502 17.0547 9.86035C17.0594 9.85567 17.0637 9.85038 17.0684 9.8457L17.082 9.83203C17.0867 9.82739 17.092 9.82299 17.0967 9.81836C17.1013 9.81371 17.1057 9.80836 17.1104 9.80371L17.1377 9.77637C17.1423 9.77175 17.1477 9.7673 17.1523 9.7627C17.157 9.75808 17.1614 9.75265 17.166 9.74805L17.207 9.70703C17.5976 9.31651 17.5976 8.68349 17.207 8.29297Z" fill="#888888"/>
</svg>
