<svg width="24" height="24" viewBox="0 0 24 24" fill="none" xmlns="http://www.w3.org/2000/svg">
<g clip-path="url(#clip0_2698_10769)">
<path d="M7.87923 11.6481C9.944 11.6481 11.6178 9.97427 11.6178 7.9095C11.6178 5.84473 9.944 4.1709 7.87923 4.1709C5.81445 4.1709 4.14062 5.84473 4.14062 7.9095C4.14062 9.97427 5.81445 11.6481 7.87923 11.6481Z" fill="#9A9EA5"/>
<path d="M7.87959 12.792C2.85519 12.792 0.900391 16.218 0.900391 17.8116C0.900391 19.4052 5.06079 19.8294 7.87959 19.8294C10.6984 19.8294 14.8588 19.4052 14.8588 17.8116C14.8588 16.218 12.9046 12.792 7.87959 12.792Z" fill="#9A9EA5"/>
<path d="M16.1204 11.6481C18.1852 11.6481 19.859 9.97427 19.859 7.9095C19.859 5.84473 18.1852 4.1709 16.1204 4.1709C14.0557 4.1709 12.3818 5.84473 12.3818 7.9095C12.3818 9.97427 14.0557 11.6481 16.1204 11.6481Z" fill="#2F3237"/>
<path d="M16.1208 12.792C11.0964 12.792 9.1416 16.218 9.1416 17.8116C9.1416 19.4052 13.302 19.8294 16.1208 19.8294C18.9396 19.8294 23.1 19.4052 23.1 17.8116C23.1 16.218 21.1458 12.792 16.1208 12.792Z" fill="#2F3237"/>
</g>
<defs>
<clipPath id="clip0_2698_10769">
<rect width="24" height="24" fill="white"/>
</clipPath>
</defs>
</svg>
