<svg width="24" height="24" viewBox="0 0 24 24" fill="none" xmlns="http://www.w3.org/2000/svg">
<g clip-path="url(#clip0_2698_10778)">
<path d="M19.4098 18.4602L21.0922 9.42655C21.1666 9.02695 20.7412 8.72095 20.386 8.91955L17.3884 10.5954C16.5514 11.0634 15.4948 10.7928 14.9854 9.98035L12.4066 5.86855C12.2182 5.56855 11.7814 5.56855 11.5936 5.86855L9.01477 9.98035C8.50537 10.7928 7.44877 11.0628 6.61177 10.5954L3.61417 8.91955C3.25897 8.72095 2.83357 9.02635 2.90797 9.42655L4.59037 18.4602" fill="#9A9EA5"/>
<path d="M18.46 21.3098H5.53964C4.96964 21.3098 4.58984 20.93 4.58984 20.36V18.4598H19.4098V20.36C19.4098 20.8352 19.03 21.3098 18.46 21.3098Z" fill="#2F3237"/>
<path d="M11.9993 5.64299C12.8387 5.64299 13.5191 4.96256 13.5191 4.12319C13.5191 3.28383 12.8387 2.60339 11.9993 2.60339C11.1599 2.60339 10.4795 3.28383 10.4795 4.12319C10.4795 4.96256 11.1599 5.64299 11.9993 5.64299Z" fill="#2F3237"/>
<path d="M21.8802 9.33928C22.7195 9.33928 23.4 8.65884 23.4 7.81948C23.4 6.98012 22.7195 6.29968 21.8802 6.29968C21.0408 6.29968 20.3604 6.98012 20.3604 7.81948C20.3604 8.65884 21.0408 9.33928 21.8802 9.33928Z" fill="#2F3237"/>
<path d="M2.11941 9.33928C2.95877 9.33928 3.63921 8.65884 3.63921 7.81948C3.63921 6.98012 2.95877 6.29968 2.11941 6.29968C1.28005 6.29968 0.599609 6.98012 0.599609 7.81948C0.599609 8.65884 1.28005 9.33928 2.11941 9.33928Z" fill="#2F3237"/>
</g>
<defs>
<clipPath id="clip0_2698_10778">
<rect width="24" height="24" fill="white"/>
</clipPath>
</defs>
</svg>
