<svg width="24" height="24" viewBox="0 0 24 24" fill="none" xmlns="http://www.w3.org/2000/svg">
<path d="M10.0025 4.59259L1.51261 19.2978C0.624882 20.8353 1.7347 22.7572 3.51015 22.7572H20.4905C22.266 22.7572 23.3752 20.8353 22.488 19.2978L13.9976 4.59259C13.1098 3.05508 10.8902 3.05508 10.0025 4.59259Z" fill="#2F3237"/>
<path d="M11.9998 17.3535C11.3628 17.3535 10.8467 17.8697 10.8467 18.5066C10.8467 19.1436 11.3628 19.6598 11.9998 19.6598C12.6368 19.6598 13.1529 19.1436 13.1529 18.5066C13.1529 17.8697 12.6368 17.3535 11.9998 17.3535Z" fill="white"/>
<path d="M12.0016 15.847C11.4622 15.847 11.0254 15.4101 11.0254 14.8708V10.066C11.0254 9.52669 11.4622 9.08984 12.0016 9.08984C12.5409 9.08984 12.9778 9.52669 12.9778 10.066V14.8708C12.9778 15.4101 12.5409 15.847 12.0016 15.847Z" fill="white"/>
</svg>
